<?xml version="1.0" encoding="UTF-8"?>
<svg width="70px" height="70px" viewBox="0 0 70 70" version="1.1" xmlns="http://www.w3.org/2000/svg" xmlns:xlink="http://www.w3.org/1999/xlink">
    <!-- Generator: Sketch 51.1 (57501) - http://www.bohemiancoding.com/sketch -->
    <title>Genre-male</title>
    <desc>Created with Sketch.</desc>
    <defs></defs>
    <g id="Page-1" stroke="none" stroke-width="1" fill="none" fill-rule="evenodd">
        <g id="02_Game" transform="translate(-130.000000, -294.000000)">
            <g id="Left-side" transform="translate(90.000000, 238.000000)">
                <g id="Genre" transform="translate(35.000000, 0.000000)">
                    <g id="Genre-male" transform="translate(5.000000, 56.000000)">
                        <rect id="Rectangle" fill="#F8F5F5" x="0" y="0" width="70" height="70"></rect>
                        <g id="Male" transform="translate(10.000000, 10.000000)">
                            <g id="Layer_x0020_1">
                                <path d="M28.2001429,20.5617143 C28.1958965,20.5574679 28.1916221,20.5531935 28.1873476,20.5489471 C28.1915658,20.5532497 28.195784,20.5575242 28.2001429,20.5617143 Z M31.4697143,28.4555714 C31.4697143,25.3792214 30.2255071,22.5935643 28.2129071,20.5745 C28.8088857,21.1567836 29.7640857,21.1525371 30.3548357,20.5617891 L31.3747429,19.5418819 L39.6190286,11.2975962 L39.6190286,16.1756891 C39.6190286,17.0172534 40.3012836,17.6995105 41.14285,17.6995105 C41.9844143,17.6995105 42.6666714,17.0172555 42.6666714,16.1756891 L42.6666714,7.61897479 C42.6666714,8.03975621 42.4960586,8.42063193 42.2202429,8.69636764 L41.14285,7.61897479 L41.14285,6.09515336 L32.5861357,6.09515336 C31.7445714,6.09515336 31.0623143,6.77740836 31.0623143,7.61897479 C31.0623143,8.46053907 31.7445693,9.14279621 32.5861357,9.14279621 L37.4642286,9.14279621 L29.2199429,17.3870819 L28.2000357,18.4069891 C27.6092879,18.9977369 27.6050414,19.9529391 28.1873248,20.5489176 C26.1682891,18.5363176 23.3826319,17.2921105 20.3062534,17.2921105 C17.2234105,17.2921105 14.4324605,18.5416034 12.4123962,20.5616819 C10.3923176,22.5817605 9.14282479,25.3726748 9.14282479,28.4555391 C9.14282479,31.5383819 10.3923176,34.3293319 12.4123962,36.3493962 C14.4324748,38.3694748 17.2234176,39.6189676 20.3062534,39.6189676 C23.3890962,39.6189676 26.1800176,38.3694748 28.2001105,36.3493962 C30.2201891,34.3293176 31.4696819,31.5383748 31.4696819,28.4555391 L31.4697143,28.4555714 Z" id="Shape" fill="#C2E4F8"></path>
                                <g id="_505161936" fill="#0A93E2" fill-rule="nonzero">
                                    <path d="M34.5173571,28.4555714 C34.5173571,32.3796714 32.9266929,35.9324286 30.3549286,38.5042143 C27.7832214,41.0759214 24.2304357,42.6666429 20.3062857,42.6666429 C16.3821286,42.6666429 12.8294286,41.0759786 10.2576429,38.5042143 C7.68587857,35.93245 6.09521429,32.3797214 6.09521429,28.4555714 C6.09521429,24.5314429 7.68593571,20.9786429 10.2576429,18.4069286 C12.8294071,15.8351643 16.3821929,14.2445 20.3062857,14.2445 C24.2303857,14.2445 27.7832143,15.8351643 30.3549286,18.4069286 C32.9266929,20.9786357 34.5173571,24.53145 34.5173571,28.4555714 Z M28.20015,36.3494286 C30.2202286,34.32935 31.4697214,31.5384071 31.4697214,28.4555714 C31.4697214,25.3727286 30.2202571,22.5818071 28.20015,20.5617143 C26.1800714,18.5416071 23.3891571,17.2921429 20.3062929,17.2921429 C17.22345,17.2921429 14.4325,18.5416357 12.4124357,20.5617143 C10.3923571,22.5817929 9.14286429,25.3727071 9.14286429,28.4555714 C9.14286429,31.5384143 10.3923571,34.3293643 12.4124357,36.3494286 C14.4325143,38.3695071 17.2234571,39.619 20.3062929,39.619 C23.3891357,39.619 26.1800571,38.3695071 28.20015,36.3494286 Z" id="_505161624"></path>
                                    <path d="M39.6190714,16.1757143 C39.6190714,17.0172786 40.3013264,17.6995357 41.1428929,17.6995357 C41.9844571,17.6995357 42.6667143,17.0172807 42.6667143,16.1757143 L42.6667143,7.619 L41.1428929,7.619 L42.2202857,8.69639286 L42.2108931,8.70578543 C42.4921924,8.42929471 42.6667146,8.04456471 42.6667146,7.61899971 C42.6667146,6.77743543 41.9844596,6.09517829 41.1428931,6.09517829 L41.1428931,7.61899971 L41.1428931,6.09517829 L32.5861789,6.09517829 C31.7446146,6.09517829 31.0623574,6.77743329 31.0623574,7.61899971 C31.0623574,8.460564 31.7446124,9.14282114 32.5861789,9.14282114 L37.4642717,9.14282114 L28.2000574,18.4070354 C27.6050353,19.0020576 27.6050353,19.9667926 28.2000574,20.561814 C28.7950796,21.1568361 29.7598146,21.1568361 30.354836,20.561814 L39.6190503,11.2975997 L39.6190503,16.1756926 L39.6190714,16.1757143 Z" id="_505161960"></path>
                                </g>
                            </g>
                            <rect id="Rectangle-path" x="0" y="0" width="48.7618571" height="48.7618571"></rect>
                        </g>
                    </g>
                </g>
            </g>
        </g>
    </g>
</svg>