<?xml version="1.0" encoding="UTF-8"?>
<svg width="70px" height="70px" viewBox="0 0 70 70" version="1.1" xmlns="http://www.w3.org/2000/svg" xmlns:xlink="http://www.w3.org/1999/xlink">
    <!-- Generator: Sketch 51.1 (57501) - http://www.bohemiancoding.com/sketch -->
    <title>Genre-female</title>
    <desc>Created with Sketch.</desc>
    <defs></defs>
    <g id="Page-1" stroke="none" stroke-width="1" fill="none" fill-rule="evenodd">
        <g id="02_Game" transform="translate(-210.000000, -294.000000)">
            <g id="Left-side" transform="translate(90.000000, 238.000000)">
                <g id="Genre" transform="translate(35.000000, 0.000000)">
                    <g id="Genre-female" transform="translate(85.000000, 56.000000)">
                        <rect id="Rectangle" fill="#F8F5F5" x="0" y="0" width="70" height="70"></rect>
                        <g id="Female" transform="translate(36.062446, 35.355339) rotate(-225.000000) translate(-36.062446, -35.355339) translate(17.562446, 16.855339)">
                            <g id="Layer_x0020_1" transform="translate(0.000000, 0.000000)">
                                <path d="M25.4697143,22.4555714 C25.4697143,19.3802643 24.2262929,16.5953929 22.2148786,14.5764286 C22.2151598,14.5767379 22.2154691,14.5770191 22.2157503,14.5773003 C22.811926,15.1567718 23.7649932,15.1516253 24.3548146,14.5618054 L25.3747218,13.5418983 L29.2101289,9.70649112 L27.0553503,7.55171255 L23.2199432,11.3871197 L22.200036,12.4070268 C21.610216,12.9968468 21.6050696,13.9499126 22.1845411,14.5460911 C22.1848223,14.5463723 22.1851036,14.5466817 22.1854129,14.5469629 C20.1664557,12.5355486 17.3815915,11.2921272 14.30627,11.2921272 C11.2234557,11.2921272 8.43250574,12.54162 6.41241289,14.5616986 C4.39233431,16.5818057 3.14284146,19.3727486 3.14284146,22.4555557 C3.14284146,25.53837 4.39233431,28.32932 6.41241289,30.3494129 C8.43252003,32.3694915 11.2234629,33.6189843 14.30627,33.6189843 C17.3890843,33.6189843 20.1800343,32.3694915 22.2001272,30.3494129 C24.2202057,28.3293057 25.4696986,25.5383629 25.4696986,22.4555557 L25.4697143,22.4555714 Z" id="Shape" fill="#F7D1EA"></path>
                                <path d="M28.5173571,22.4555714 C28.5173571,26.3797 26.9266357,29.9324286 24.3549286,32.5042143 C21.7831643,35.0759214 18.2304071,36.6666429 14.3062857,36.6666429 C10.3821571,36.6666429 6.82942857,35.0759214 4.25764286,32.5042143 C1.68593571,29.93245 0.0952142857,26.3796929 0.0952142857,22.4555714 C0.0952142857,18.5314429 1.68593571,14.9787143 4.25764286,12.4069286 C6.82940714,9.83522143 10.3821643,8.2445 14.3062857,8.2445 C18.2304143,8.2445 21.7831429,9.83522143 24.3549286,12.4069286 C26.9266357,14.9786929 28.5173571,18.53145 28.5173571,22.4555714 Z M22.20015,30.3494286 C24.2202286,28.3293214 25.4697214,25.5383786 25.4697214,22.4555714 C25.4697214,19.3727571 24.2202286,16.5818071 22.20015,14.5617143 C20.1800429,12.5416357 17.3891,11.2921429 14.3062929,11.2921429 C11.2234786,11.2921429 8.43252857,12.5416357 6.41243571,14.5617143 C4.39235714,16.5818214 3.14286429,19.3727643 3.14286429,22.4555714 C3.14286429,25.5383857 4.39235714,28.3293357 6.41243571,30.3494286 C8.43254286,32.3695071 11.2234857,33.619 14.3062929,33.619 C17.3891071,33.619 20.1800571,32.3695071 22.20015,30.3494286 Z" id="Shape" fill="#DAA4C7" fill-rule="nonzero"></path>
                                <path d="M36.2202143,2.69642857 C36.8152364,2.10140643 36.8152364,1.13667143 36.2202143,0.54165 C35.6251921,-0.0533721429 34.6604571,-0.0533721429 34.0654357,0.54165 L22.2000071,12.4070786 C21.604985,13.0021007 21.604985,13.9668357 22.2000071,14.5618571 C22.7950293,15.1568793 23.7597643,15.1568793 24.3547857,14.5618571 L36.2202143,2.69642857 Z" id="Shape" fill="#DAA4C7" fill-rule="nonzero"></path>
                                <path d="M33.3010714,13.7975 C33.8960936,14.3925221 34.8608286,14.3925221 35.45585,13.7975 C36.0508721,13.2024779 36.0508721,12.2377429 35.45585,11.6427214 L25.1191357,1.30600714 C24.5241136,0.710985 23.5593786,0.710985 22.9643571,1.30600714 C22.369335,1.90102929 22.369335,2.86576429 22.9643571,3.46078571 L33.3010714,13.7975 Z" id="Shape" fill="#DAA4C7" fill-rule="nonzero"></path>
                            </g>
                        </g>
                    </g>
                </g>
            </g>
        </g>
    </g>
</svg>