<?xml version="1.0" encoding="UTF-8"?>
<svg width="70px" height="70px" viewBox="0 0 70 70" version="1.1" xmlns="http://www.w3.org/2000/svg" xmlns:xlink="http://www.w3.org/1999/xlink">
    <!-- Generator: Sketch 51.1 (57501) - http://www.bohemiancoding.com/sketch -->
    <title>Haircut-short</title>
    <desc>Created with Sketch.</desc>
    <defs>
        <path d="M51.3779611,18.6274837 L40.7763727,29.2290721 C40.5331758,28.9600286 40.2925326,28.6860714 40.0657489,28.403405 C39.5380994,27.7456085 39.0466405,27.0584929 38.6083312,26.3383825 C38.1644272,25.6090825 36.3964166,22.6672021 35.8627353,21.9747478 C36.3668697,23.4852468 36.9159364,24.9963585 37.5583646,26.4537332 C36.3110101,26.064709 35.1015947,24.9865563 34.3047005,23.9818325 C33.4071019,22.8502929 32.8755186,21.5293611 32.6882712,20.1008679 C31.6759813,22.8572069 29.3049676,25.0308412 26.857901,26.5300502 C27.3880857,25.5429178 28.1958196,24.7080693 28.7241685,23.7043081 C26.2919628,26.1730581 22.2227848,27.3809147 21.1569956,31.0012463 C20.8838172,29.7422783 20.0051881,28.7305529 19.7419752,27.4463793 C19.4497399,26.0204241 19.2400263,24.5066869 19.2864448,23.0493122 C19.3916075,19.809778 21.5707407,16.7717137 24.0918495,14.892495 C25.4522343,13.8784941 27.0606213,13.0092505 28.7385049,12.6754511 C30.4445368,12.336138 31.4796746,12.2537236 33.1590443,12.6561383 C33.591147,12.7596739 33.7369587,12.8625968 34.1173104,12.616842 C34.437694,12.4097709 36.6741643,10.1055237 43.4906077,11.38448 C47.297272,12.0987172 49.6254788,15.5844175 51.3779611,18.6274837 Z" id="path-1"></path>
    </defs>
    <g id="Page-1" stroke="none" stroke-width="1" fill="none" fill-rule="evenodd">
        <g id="02_Game" transform="translate(-1120.000000, -450.000000)">
            <g id="Right-side" transform="translate(1080.000000, 238.000000)">
                <g id="Haircut" transform="translate(40.000000, 156.000000)">
                    <g id="Haircut-short" transform="translate(0.000000, 56.000000)">
                        <g id="Short-Female">
                            <polygon id="Rectangle" fill="#F3EEEE" points="70 0 70 70 0 70"></polygon>
                            <g id="Hair-female-7" transform="translate(16.000000, 10.000000)" fill-rule="nonzero">
                                <path d="M30.3072642,37.7552548 C32.6484722,34.6896056 31.7770278,29.0656492 32,26 C31.0483876,27.3341415 29.0076853,27.9835227 29.1191714,27.7720986 C28.1157966,32.6348525 24.9963664,36.2961284 22.0012751,37.5948578 L22.0012751,41.6030852 C21.9289967,42 24.9472325,41.671548 26.5573814,42 C27.3657934,41.3121977 28.857945,39.5523595 30.3072642,37.7552548 Z" id="Shape" fill="#000000"></path>
                                <path d="M4.34422859,6.10994529 C8.40126879,0.73740719 13.0988943,0.105343884 16.0882923,0 C19.1844546,0 21.4265031,1.58015826 21.4265031,1.58015826 C21.4265031,1.58015826 32.9570384,2.63359711 34.6652659,10.2183568 C36.0532007,16.1176143 37.5478997,18.5405236 36.8005502,23.8077179 C35.1990869,35.2902012 28.5224376,40.4000341 26.5617828,42.0027313 C26.5617828,42.0027313 29.7541119,35.3955451 30.3946972,31.6031653 C30.9285183,27.8107855 30.6082257,26.5466589 29.8608762,23.9130617 C29.2202909,21.2794646 27.4052992,19.1725869 24.4159012,17.0657093 C21.4265031,14.8534877 21.7467958,9.79698124 21.7467958,9.79698124 C21.7467958,9.79698124 -11.6704038,27.6000977 4.34422859,6.10994529 Z" id="Shape" fill="#352A22"></path>
                            </g>
                        </g>
                        <g id="Short-Male">
                            <polygon id="Rectangle" fill="#F8F5F5" points="0 0 70 0 0 70"></polygon>
                            <mask id="mask-2" fill="white">
                                <use xlink:href="#path-1"></use>
                            </mask>
                            <use id="Combined-Shape" fill="#352A22" xlink:href="#path-1"></use>
                        </g>
                    </g>
                </g>
            </g>
        </g>
    </g>
</svg>