<?xml version="1.0" encoding="UTF-8"?>
<svg width="70px" height="70px" viewBox="0 0 70 70" version="1.1" xmlns="http://www.w3.org/2000/svg" xmlns:xlink="http://www.w3.org/1999/xlink">
    <!-- Generator: Sketch 51.1 (57501) - http://www.bohemiancoding.com/sketch -->
    <title>Haircut-long</title>
    <desc>Created with Sketch.</desc>
    <defs>
        <path d="M56.3428018,54.3173276 C56.3365371,54.4354978 56.3349446,54.56027 56.3385345,54.692883 C56.3895664,56.8951685 61.9063984,64.4869175 59.918898,70 L57.8497615,69.9999988 C57.8497615,60.1632406 50.1748001,52.1190656 40.4864659,51.5290624 L40.4864659,47.2931378 C44.4916258,45.3904939 47.3514088,41.4681728 47.7496739,36.8423156 C49.0696751,36.6447344 50.0819714,35.5061273 50.0819714,34.1310857 L50.0819714,32.3044992 C45.0796127,28.3768778 41.3857168,23.2172915 40.2040437,17.8064284 C35.5395091,25.063565 25.5163534,26.6495405 19.9246686,32.2908815 L19.9246686,34.1310857 C19.9246686,35.5061273 20.9369649,36.6447344 22.256966,36.8423156 C22.6552311,41.4681728 25.5150141,45.3904939 29.520174,47.2931378 L29.520174,51.5290624 C19.8318398,52.1190656 12.1568785,60.1632406 12.1568785,69.9999988 L11.320619,69.9999988 C10.9015895,69.281076 10.6648965,68.5186153 10.5687576,67.7306569 C10.4285024,65.6066561 11.1299812,63.3112915 12.0166397,61.2009823 C13.3336531,58.2669654 15.0415222,55.6432366 15.0415222,54.2359542 C15.1141566,51.5528129 14.3808835,50.9371503 14.4365143,44.4119843 C14.6235879,37.780027 18.2093808,38.3778352 18.1758099,33.9026212 C18.2093808,29.5616316 16.783784,22.7048014 20.4168998,17.3342117 C24.0500156,11.963622 28.1293627,9 35.0195528,9 C41.9097429,9 48.5644501,11.7796263 50.8758825,20.1095925 C53.138014,28.3710367 52.0283539,29.5616316 52.0619248,33.9026212 C52.0283539,38.3778352 55.501586,38.2988907 57.0497953,44.4119843 C58.5980047,50.525078 56.2659002,51.5528129 56.3385345,54.2359542 C56.3391454,54.2623178 56.3405755,54.2894465 56.3428018,54.3173276 Z" id="path-1"></path>
    </defs>
    <g id="Page-1" stroke="none" stroke-width="1" fill="none" fill-rule="evenodd">
        <g id="02_Game" transform="translate(-1280.000000, -450.000000)">
            <g id="Right-side" transform="translate(1080.000000, 238.000000)">
                <g id="Haircut" transform="translate(40.000000, 156.000000)">
                    <g id="Haircut-long" transform="translate(160.000000, 56.000000)">
                        <rect id="Rectangle" fill="#F8F5F5" x="0" y="0" width="70" height="70"></rect>
                        <mask id="mask-2" fill="white">
                            <use xlink:href="#path-1"></use>
                        </mask>
                        <use id="Hair" fill="#352A22" xlink:href="#path-1"></use>
                    </g>
                </g>
            </g>
        </g>
    </g>
</svg>