<?xml version="1.0" encoding="UTF-8"?>
<svg width="70px" height="70px" viewBox="0 0 70 70" version="1.1" xmlns="http://www.w3.org/2000/svg" xmlns:xlink="http://www.w3.org/1999/xlink">
    <!-- Generator: Sketch 51.1 (57501) - http://www.bohemiancoding.com/sketch -->
    <title>Haircut-medium</title>
    <desc>Created with Sketch.</desc>
    <defs>
        <path d="M51.1496419,18.3402669 C52.9398843,22.2774298 53.8830017,26.5332422 53.9179589,29.0591212 C53.9495301,31.3403446 54.4403799,34.769742 53.9179589,36.1279579 C52.721914,39.237494 54.807277,40.2818582 55.068566,43.4865896 C55.3298549,46.6913209 54.3558965,48.0273378 53.9179589,50.145798 C53.4800213,52.2642583 55.068566,54.3161663 55.068566,56.7885709 C55.068566,58.4368405 53.9735154,59.9777978 51.7834143,61.4114426 C46.6339675,61.6619888 43.694879,60.135529 42.9661488,56.8320633 C42.273692,55.7626992 41.7939973,54.486585 41.4715653,53.0856866 C41.2512331,52.4171989 41.1037234,51.7413684 41.1251078,51.1132253 C40.852544,48.9809702 40.8479996,46.6708908 40.9511332,44.4197907 L40.9511332,42.3678796 C43.2014809,41.2988561 45.0538854,39.5281272 46.2255863,37.3384533 C46.232957,37.2913057 46.2403642,37.2439599 46.2478078,37.1964158 C47.1368381,31.518001 47.6662476,27.5546384 47.8360362,25.3063278 C47.7568577,25.284727 47.6761081,25.2669343 47.5939964,25.2531585 L47.5939964,25.2187159 C46.3409553,20.7481124 42.6594941,18.6962645 40.4175627,16.6612786 C36.9104782,20.5839194 25.9678733,20.5977342 22.2680807,28.332558 L22.2680807,30.4084528 C22.2680807,31.6578559 23.1878828,32.6924278 24.3872746,32.8719559 C24.7491499,37.0751455 27.3476327,40.6390815 30.9868385,42.3678796 L30.9868385,42.4486422 C31.1863858,45.4350108 31.9604629,50.4706221 30.47779,53.2283193 C29.4076979,55.2186369 26.2795615,55.0923466 25.0979734,56.5647263 C22.9258922,59.2713621 22.2970028,60.9885598 16.6631649,59.470979 C16.6674071,59.4684964 16.6716462,59.4659937 16.6758824,59.4634709 C14.5600941,58.7718374 13.4417298,56.573593 14.2791605,55.3449386 C15.2819702,53.8736451 16.5476608,51.7971312 15.7255877,47.5491546 C14.9035145,43.3011779 15.8410918,40.1696042 16.6631649,37.1964158 C17.485238,34.2232274 16.6631649,35.3329066 16.6631649,29.0591212 C16.6631649,23.2795597 23.4141594,13.3083042 26.5355809,11.0813877 C26.7030487,10.9452525 26.8721816,10.8139079 27.0426386,10.6874528 C31.1746331,7.62351171 38.1366225,6.73945761 40.5457252,10.3806573 C42.3416387,9.58329179 45.0030824,10.3100783 46.971228,12.1405792 C48.1214012,13.272702 49.9679056,15.541821 51.1496419,18.3402669 Z M35.6386522,63 L37.8474287,63 L35.6386522,63 Z" id="path-1"></path>
    </defs>
    <g id="Page-1" stroke="none" stroke-width="1" fill="none" fill-rule="evenodd">
        <g id="02_Game" transform="translate(-1200.000000, -450.000000)">
            <g id="Right-side" transform="translate(1080.000000, 238.000000)">
                <g id="Haircut" transform="translate(40.000000, 156.000000)">
                    <g id="Haircut-medium" transform="translate(80.000000, 56.000000)">
                        <rect id="Rectangle" fill="#F8F5F5" x="0" y="0" width="70" height="70"></rect>
                        <mask id="mask-2" fill="white">
                            <use xlink:href="#path-1"></use>
                        </mask>
                        <use id="Hair" fill="#352A22" xlink:href="#path-1"></use>
                    </g>
                </g>
            </g>
        </g>
    </g>
</svg>